<?xml version="1.0" encoding="UTF-8"?>
<svg id="Capa_1" data-name="Capa 1" xmlns="http://www.w3.org/2000/svg" viewBox="0 0 249.22 252.73">
  <defs>
    <style>
      .cls-1 {
        fill: #fff;
      }
    </style>
  </defs>
  <path class="cls-1" d="M228.57,114.25c-5.42-.72-10.19-1.34-14.96-2-2.7-.37-2.63-2.22-2.66-4.43-.16-10.1.46-20.36-1.18-30.24-1.33-7.95-4.51-16.01-8.59-23.01-11.47-19.69-33.54-23.53-51.82-9.94-11.08,8.24-18.21,19.52-24.78,31.29-1.23,2.2-.06,3.16,1.54,4.51,9.85,8.4,20.45,16.14,29.18,25.59,22.24,24.1,4.12,51.06-16.04,57.51-19.2,6.14-39.5-6.41-43.05-27.16-2.5-14.64-.36-29.01,3.16-43.23,1.53-6.16,1.79-6.63-4.19-8.39-8.01-2.37-16.23-5.39-24.42-5.6-24.1-.62-41.3,17.52-41.47,42.16-.11,16.39,7.41,29.63,17.19,41.88,6.98,8.74,7.13,8.62-.94,16.66-4.59,4.57-4.69,4.65-8.74-.26-9.93-12.07-19.12-24.63-23.49-39.93-8.61-30.18,4.38-67.54,41.9-78.28,14.4-4.13,28.58-1.64,42.29,3.85,3.42,1.37,6.81,2.83,10.17,4.22,4.11-7,7.76-13.92,12.07-20.4,8.15-12.25,18.75-21.89,32.46-27.65,22.9-9.63,50.41-.2,64.22,21.77,9.76,15.53,12.95,32.74,12.97,50.71.01,6.65-.52,13.3-.82,20.36ZM116.65,95.71c-2.75,10.6-4.92,20.03-4.09,29.7.43,4.95,1.8,10.17,4.11,14.54,4.1,7.75,13.32,9.64,21.1,5.22,8.4-4.77,11.87-14.1,7.79-21.73-6.42-11.99-17.73-18.86-28.92-27.73Z"/>
  <path class="cls-1" d="M86.01,207.69c1.31-1.33,3.32-1.39,4.9-.39,0,0,.01,0,.02.01,20.12,12.43,41.56,18.46,64.92,11.35,29.33-8.92,46.38-30,54.39-59.34.79-2.89,1.28-5.84,1.71-8.8.4-2.75,1.65-3.38,4.24-3.26,13.62.62,14.46,1.39,11.23,14.42-9.79,39.55-33.67,65.89-73.74,75.55-22.35,5.39-43.61-.02-63.48-11.03-3.48-1.93-6.85-4.05-10.53-6.33-1.81-1.12-2.11-3.64-.61-5.15l6.95-7.04Z"/>
  <path class="cls-1" d="M47.15,196.87c8.36-3.06,13.25-10.47,13.56-18.57.02-.42.59-.51.74-.11,2.73,7.54,9.63,13.19,18.59,13.54.42.02.51.59.12.73-1.94.71-4.19,1.86-6.2,3.52-2.67,2.22-4.66,4.93-5.93,8.16-.88,2.24-1.35,4.54-1.45,6.83-.02.42-.59.5-.74.11-2.95-8.17-10.43-13.2-18.58-13.48-.42-.01-.51-.59-.12-.73Z"/>
</svg>