<?xml version="1.0" encoding="UTF-8"?>
<svg id="Capa_1" data-name="Capa 1" xmlns="http://www.w3.org/2000/svg" viewBox="0 0 540.57 413.48">
  <defs>
    <style>
      .cls-1 {
        fill: #c595fc;
      }

      .cls-2 {
        fill: #24334d;
      }
    </style>
  </defs>
  <path class="cls-1" d="M534.73,123.98c-6.95-.93-13.08-1.72-19.2-2.57-3.47-.48-3.37-2.84-3.42-5.69-.21-12.96.6-26.13-1.52-38.8-1.7-10.21-5.79-20.54-11.03-29.54-14.73-25.27-43.05-30.2-66.51-12.76-14.22,10.58-23.36,25.06-31.8,40.16-1.58,2.83-.07,4.05,1.97,5.79,12.65,10.78,26.25,20.71,37.45,32.85,28.55,30.93,5.28,65.53-20.58,73.8-24.64,7.88-50.7-8.23-55.24-34.86-3.21-18.79-.46-37.23,4.05-55.48,1.96-7.91,2.29-8.51-5.37-10.77-10.29-3.04-20.82-6.91-31.34-7.18-30.93-.79-53.01,22.49-53.22,54.1-.14,21.04,9.5,38.03,22.06,53.75,8.96,11.22,9.16,11.06-1.21,21.38-5.89,5.87-6.02,5.97-11.21-.34-12.74-15.49-24.53-31.61-30.14-51.25-11.06-38.73,5.62-86.68,53.77-100.46,18.49-5.29,36.68-2.1,54.28,4.94,4.4,1.76,8.75,3.63,13.05,5.42,5.28-8.98,9.95-17.87,15.49-26.18,10.46-15.72,24.07-28.09,41.65-35.48,29.39-12.36,64.69-.26,82.42,27.94,12.52,19.92,16.62,42.02,16.65,65.09.01,8.53-.67,17.07-1.06,26.12ZM391.1,100.19c-3.52,13.6-6.31,25.7-5.25,38.11.55,6.36,2.31,13.05,5.28,18.67,5.26,9.95,17.1,12.37,27.09,6.69,10.78-6.12,15.23-18.1,9.99-27.89-8.24-15.39-22.76-24.21-37.11-35.59Z"/>
  <path class="cls-2" d="M351.78,243.9c1.68-1.7,4.26-1.78,6.28-.5,0,0,.02.01.03.02,25.82,15.95,53.33,23.69,83.31,14.57,37.64-11.44,59.52-38.5,69.8-76.15,1.01-3.71,1.64-7.5,2.2-11.3.52-3.53,2.11-4.34,5.44-4.19,17.48.79,18.55,1.78,14.41,18.51-12.56,50.75-43.21,84.56-94.63,96.96-28.68,6.92-55.96-.02-81.46-14.15-4.47-2.47-8.79-5.2-13.51-8.13-2.32-1.44-2.71-4.67-.79-6.61l8.92-9.03Z"/>
  <g>
    <path class="cls-2" d="M54.46,366.53H22.32l-5.32,15.38H0l29.02-80.83h18.85l29.02,80.83h-17.11l-5.32-15.38ZM50.07,353.58l-11.68-33.76-11.68,33.76h23.36Z"/>
    <path class="cls-2" d="M103.95,296.34v85.57h-16.19v-85.57h16.19Z"/>
    <path class="cls-2" d="M178.99,354.74h-46.83c.39,4.63,2,8.25,4.86,10.87,2.85,2.62,6.36,3.93,10.52,3.93,6.01,0,10.29-2.58,12.84-7.75h17.46c-1.85,6.17-5.4,11.24-10.64,15.21-5.24,3.97-11.68,5.96-19.31,5.96-6.17,0-11.7-1.37-16.59-4.11-4.9-2.73-8.71-6.61-11.45-11.62-2.74-5.01-4.1-10.79-4.1-17.34s1.35-12.45,4.05-17.46c2.7-5.01,6.48-8.86,11.33-11.56,4.86-2.7,10.45-4.05,16.77-4.05s11.54,1.31,16.36,3.93c4.82,2.62,8.56,6.34,11.22,11.16,2.66,4.82,3.99,10.35,3.99,16.59,0,2.31-.16,4.39-.46,6.24ZM162.69,343.87c-.08-4.16-1.58-7.5-4.51-10-2.93-2.5-6.52-3.76-10.75-3.76-4.01,0-7.38,1.22-10.12,3.64-2.74,2.43-4.41,5.8-5.03,10.12h30.41Z"/>
    <path class="cls-2" d="M228.95,319.64c3.62,1.89,6.47,4.34,8.56,7.34v-9.14h16.3v64.52c0,5.94-1.2,11.23-3.58,15.9-2.39,4.66-5.98,8.36-10.75,11.1-4.78,2.73-10.56,4.11-17.34,4.11-9.1,0-16.55-2.12-22.37-6.36-5.82-4.24-9.12-10.02-9.89-17.34h16.07c.85,2.93,2.68,5.26,5.49,6.99,2.81,1.73,6.22,2.6,10.23,2.6,4.7,0,8.52-1.41,11.45-4.22,2.93-2.81,4.39-7.07,4.39-12.78v-9.94c-2.08,3.01-4.95,5.51-8.61,7.52-3.66,2-7.84,3.01-12.55,3.01-5.4,0-10.33-1.39-14.8-4.16-4.47-2.78-8-6.69-10.58-11.74-2.58-5.05-3.87-10.85-3.87-17.4s1.29-12.22,3.87-17.23c2.58-5.01,6.09-8.86,10.52-11.56,4.43-2.7,9.38-4.05,14.86-4.05,4.78,0,8.98.95,12.6,2.83ZM235.19,339.76c-1.54-2.81-3.62-4.97-6.24-6.48-2.62-1.5-5.43-2.25-8.44-2.25s-5.78.73-8.33,2.2c-2.54,1.47-4.61,3.6-6.19,6.42-1.58,2.82-2.37,6.15-2.37,10s.79,7.23,2.37,10.12c1.58,2.89,3.66,5.11,6.24,6.65,2.58,1.54,5.34,2.31,8.27,2.31s5.82-.75,8.44-2.25c2.62-1.5,4.7-3.66,6.24-6.47,1.54-2.81,2.31-6.19,2.31-10.12s-.77-7.3-2.31-10.12Z"/>
    <path class="cls-2" d="M293.99,319.82c3.35-1.93,7.19-2.89,11.51-2.89v17h-4.28c-5.09,0-8.92,1.2-11.51,3.58-2.58,2.39-3.87,6.55-3.87,12.49v31.91h-16.19v-64.06h16.19v9.94c2.08-3.39,4.8-6.05,8.15-7.98Z"/>
    <rect class="cls-2" x="317.06" y="317.85" width="16.19" height="64.06"/>
    <path class="cls-2" d="M349.61,332.42c2.58-5.01,6.09-8.86,10.52-11.56,4.43-2.7,9.38-4.05,14.86-4.05,4.78,0,8.96.97,12.55,2.89,3.58,1.93,6.46,4.36,8.61,7.29v-9.14h16.3v64.06h-16.3v-9.37c-2.08,3.01-4.95,5.49-8.61,7.46-3.66,1.97-7.88,2.95-12.66,2.95-5.4,0-10.31-1.39-14.74-4.16-4.43-2.78-7.94-6.69-10.52-11.74-2.58-5.05-3.87-10.85-3.87-17.4s1.29-12.22,3.87-17.23ZM393.83,339.76c-1.54-2.81-3.62-4.97-6.24-6.48-2.62-1.5-5.43-2.25-8.44-2.25s-5.78.73-8.33,2.2c-2.54,1.47-4.61,3.6-6.19,6.42-1.58,2.82-2.37,6.15-2.37,10s.79,7.23,2.37,10.12c1.58,2.89,3.66,5.11,6.24,6.65,2.58,1.54,5.34,2.31,8.27,2.31s5.82-.75,8.44-2.25c2.62-1.5,4.7-3.66,6.24-6.47,1.54-2.81,2.31-6.19,2.31-10.12s-.77-7.3-2.31-10.12Z"/>
    <path class="cls-2" d="M503.91,362.72h-36.77l-7.05,19.19h-8.56l29.49-79.79h9.13l29.37,79.79h-8.56l-7.05-19.19ZM501.48,356.01l-15.96-43.71-15.96,43.71h31.91Z"/>
    <path class="cls-2" d="M540.57,301.08v80.83h-8.09v-80.83h8.09Z"/>
  </g>
  <path class="cls-2" d="M301.91,230.01c10.73-3.92,17.01-13.44,17.41-23.83.02-.54.76-.65.94-.15,3.5,9.68,12.36,16.92,23.85,17.38.53.02.65.76.15.94-2.49.91-5.37,2.38-7.95,4.52-3.43,2.84-5.98,6.33-7.61,10.47-1.14,2.88-1.74,5.83-1.86,8.77-.02.54-.76.64-.94.14-3.78-10.49-13.38-16.94-23.84-17.31-.54-.02-.65-.76-.15-.94Z"/>
</svg>