<?xml version="1.0" encoding="UTF-8"?>
<svg id="Capa_1" data-name="Capa 1" xmlns="http://www.w3.org/2000/svg" viewBox="0 0 406.96 361.95">
  <defs>
    <style>
      .cls-1 {
        fill: #fff;
      }
    </style>
  </defs>
  <path class="cls-1" d="M406.96,172.78c-3.98,9.14-9.02,27.66-19.17,42.73-37.21,55.25-84.16,101.57-136.6,142.56-9.24,7.22-13.63,3.5-18.84-3.94-5.33-7.61-10.49-13.45.65-21.85,46.34-34.94,86.81-75.98,121.24-122.7,7.79-10.57,14.19-22.58,19.08-34.78,5.28-13.18,3.68-27.12-8.11-36.43-11.08-8.74-24.4-5.89-34.63,1.54-26.7,19.41-52.46,40.12-78.51,60.42-27.23,21.21-53.88,43.21-81.69,63.63-23.05,16.92-49.18,23.31-76.96,12.82-32.26-12.18-45.76-46.13-28.23-78.05,11.68-21.28,28.85-39.66,44.33-58.73,12.73-15.69,26.98-30.14,39.65-45.88,3.48-4.32,3.66-11.28,5.36-17.03-6.4-.92-13.64-4.19-19.03-2.27-10.04,3.58-18.71,10.79-28.47,15.38-12.78,6.01-25.64,13.8-39.21,15.8-31.26,4.6-52.87-13.09-58.05-45.15-.69-4.29,3.16-13.23,5.29-13.35,8.19-.47,18.69-8.38,24.42,4.87,11.75,27.16,21.42,29.28,47.96,14.14,16.83-9.6,34.5-18.99,53.01-24.06,17.29-4.73,33.57,2.96,42.38,19.74,8.29,15.79,6.53,31.93-5,45.69-21.85,26.07-44.72,51.28-66.37,77.52-8.03,9.73-15.29,20.68-20.21,32.21-6.39,14.99,1.34,27,17.35,31.04,17.9,4.51,33.44-1.51,47.02-12.12,42.37-33.08,84.08-67,126.51-100.01,13.53-10.53,27.49-21.46,42.99-28.31,42.5-18.79,82.41,8.9,81.85,64.58Z"/>
  <path class="cls-1" d="M36.75,18.81c-.42,10.05-9.66,19.09-19.39,17.9C6.18,35.34-.78,28.83.07,17.03.84,6.23,7.5.25,18.43,0c10.3-.23,18.75,8.71,18.32,18.81Z"/>
</svg>