<?xml version="1.0" encoding="UTF-8"?>
<svg id="Capa_1" data-name="Capa 1" xmlns="http://www.w3.org/2000/svg" viewBox="0 0 633.99 297.08">
  <defs>
    <style>
      .cls-1 {
        fill: #fff;
      }
    </style>
  </defs>
  <path class="cls-1" d="M57.51,0c15.87,21.22,15.88,21.39-1.54,37.54-35.08,32.54-36.63,99.32,24.57,119.36,1.57-10.6,2.64-21.1,4.75-31.39,5.59-27.27,28.88-48.05,55.28-49.97,21.38-1.56,37.67,7.2,47.98,25.52,11.29,20.06,8.47,39.95-4.28,58.54-9.76,14.23-16.21,18.11-55.99,35.24,11.16,12.18,20.23,25.04,32.05,34.45,55.89,44.52,116.3,48.17,178.14,14.24,36.67-20.12,71.13-44.21,107.21-65.47,37.44-22.06,77.14-37.64,121.81-35.44,5.41.27,11.41-.42,16.04,1.72,4.7,2.17,12.03,9.27,11.28,10.78-3.69,7.43,1.17,22.31-15.49,19.95-45.7-6.49-85.42,10.45-123.23,33-29.62,17.67-57.98,37.46-87.69,54.96-43.01,25.33-88.58,40.78-139.71,31.18-55.44-10.41-98.51-38.75-127.56-87.31-5.6-9.37-11.42-15.21-23.18-17.68C36.33,180.48,6.13,146.13.68,104.04-4.22,66.13,17.87,21.13,50.2,3.26c2.12-1.17,4.43-1.99,7.31-3.26ZM113.81,150.74c1.23,1.48,4.7,9.7,9.44,10.52,12.76,2.2,35-12.53,38.17-25.32,1.75-7.06.81-17.85-3.61-22.51-4.31-4.54-15.18-5.89-22.15-4.27-14.03,3.26-22.03,18.41-21.85,41.58Z"/>
  <path class="cls-1" d="M633.99,169.21c-.67,9.72-6.13,16.12-17.5,16.49-10.33.34-19.46-8.43-19.29-18.26.17-9.46,10.24-18.8,19.76-18.33,9.67.48,17.09,8.68,17.03,20.09Z"/>
</svg>