<?xml version="1.0" encoding="UTF-8"?>
<svg id="Capa_1" data-name="Capa 1" xmlns="http://www.w3.org/2000/svg" viewBox="0 0 348.31 261.5">
  <defs>
    <style>
      .cls-1 {
        fill: #fff;
      }
    </style>
  </defs>
  <path class="cls-1" d="M96.25,134.6c-1.02-14.19-.63-28.67-3.43-42.51-3.38-16.73-13.63-23.76-27.95-22.71-17.34,1.27-28.65,11.87-30.42,28.67-.31,2.93-.19,5.91-.18,8.86.06,12.57-11.06,22.75-23.05,19.92-3.05-.72-6.48-5.68-7.28-9.24C-6.74,69.73,35.59,28.33,83.18,39.77c23.57,5.67,41.59,30.82,43.35,62.59.95,17.19-.6,34.51-.17,51.74.64,26.11,7.78,49.71,29.77,66.27,14.55,10.96,30.41,13.85,47.11,5.1,16.46-8.61,18.95-24.01,18.55-40.47-.09-3.92-.87-7.84-1.45-11.74-3.9-25.95-4-26.71-29.56-23.79-14.14,1.61-14.95-6.74-16.81-16.39-2.05-10.65,2.99-15.25,12.55-14.83,17.65.77,20.96-7.55,21.82-24.11,2.03-39.2,21.42-69.12,56.93-87.21,24.21-12.33,50.06-7.89,68,10.61,16.64,17.16,19.89,42.3,7.67,65.89-16.78,32.38-45.52,48.33-79.92,54.83-12.05,2.28-15.47,5.57-12.2,18.3,6.5,25.27,7.93,51.14-6.58,74.55-19.52,31.51-65.33,39.85-98.35,18.7-30.67-19.64-44.46-49.18-48.27-84.1-1.12-10.23-.17-20.68-.17-31.03l.8-.09ZM243.14,111.61c14.08-4.85,29.73-7.43,42.02-15.28,11.76-7.5,22.53-19.11,29.23-31.38,9.11-16.69-4.99-34.74-23.68-33.43-30.51,2.14-59.48,48.67-47.57,80.08Z"/>
  <path class="cls-1" d="M36.33,151.95c-.14,10.37-8.96,19.01-19.23,18.25C5.86,169.37.06,162.39,0,151.69c-.06-10.92,6.44-17.48,17.28-18.42,9.72-.84,19.17,8.94,19.05,18.68Z"/>
</svg>