<?xml version="1.0" encoding="UTF-8"?>
<svg id="Capa_1" data-name="Capa 1" xmlns="http://www.w3.org/2000/svg" viewBox="0 0 352.78 341.84">
  <defs>
    <style>
      .cls-1 {
        fill: #fff;
      }
    </style>
  </defs>
  <path class="cls-1" d="M194.1,169.33c-4.94,16.09-6.78,29.27-12.87,40.04-7.07,12.5-16.09,25.32-27.45,33.7-24.23,17.87-54.49,13.68-72.2-7.01-19.28-22.53-18.49-55.27,2.42-78.36,16.03-17.7,36.47-27.6,60.24-26.94,14.73.41,18.24-5.53,19.36-18.51,3.44-39.86,20.16-72.83,53.95-95.71C264.42-15.19,327.28.43,348.58,48.82c8,18.18,5.29,23.25-14.37,23.47-4.39.05-10.83-4.26-12.93-8.32-15.38-29.73-43.73-40.82-74.56-27.74-40.46,17.15-53.52,59.33-53.04,94.62.05,3.84,6.73,8.93,11.43,11.16,34.27,16.32,59.79,40.59,68.56,78.4,14.71,63.44-30.91,118.44-99.31,121.29-38.75,1.62-73.72-10.78-107.36-28.33-6.99-3.65-13.49-8.44-20.77-11.28-14.13-5.52-14.3-12.9-6.49-24.65,5.79-8.71,10-8.69,19.06-4.46,26.66,12.46,53.36,25.76,81.46,33.84,16.58,4.77,36.74,3.69,53.72-.74,53.15-13.88,68.95-70.93,31.83-111.55-8.4-9.2-19.67-15.78-31.69-25.2ZM160.06,162.82c-21.18-2.87-39.11.59-53.18,16.2-9.99,11.08-10.14,28.21-1.06,37.72,8.38,8.78,24.28,7.69,35.82-3.23,14.18-13.4,17.31-30.96,18.42-50.69Z"/>
  <path class="cls-1" d="M0,263.27c1.32-9.55,7.22-16.11,19.04-15.99,10.44.11,18.73,8.84,17.61,19.09-1.16,10.64-7.85,16.73-18.35,17.39-9.92.63-18.62-8.83-18.3-20.49Z"/>
</svg>