<?xml version="1.0" encoding="UTF-8"?>
<svg id="Capa_1" data-name="Capa 1" xmlns="http://www.w3.org/2000/svg" viewBox="0 0 262.29 348.9">
  <defs>
    <style>
      .cls-1 {
        fill: #fff;
      }
    </style>
  </defs>
  <path class="cls-1" d="M107.23,129.88c-39.22,9.94-71.82,47.56-75.35,86.46-3.56,39.24,16.98,77.03,50.88,92.49,28.26,12.89,57.15,12.78,84.15-2.11,16.05-8.85,19.18,3.64,24.62,11.43,7.77,11.13-4.03,13.02-10.11,16.25-57.28,30.5-130.34,11.27-162.54-42.51C-17.12,231.8-.49,159.04,59.01,118.96c11.78-7.93,25.41-13.07,37.53-20.56,5.58-3.45,12.19-8.74,13.83-14.48C121.62,44.58,145.6,17.4,183.88,2.83c5.94-2.26,13.37-6.49,15.11,3.65,1.41,8.23,11.27,17.45-3.35,25.35-14.03,7.58-27.03,17.6-38.98,28.23-6.11,5.44-8.91,14.57-14.92,25.01,10.04-1.1,16.25-2.22,22.48-2.38,14.25-.37,28.81-2.15,42.71.02,27.79,4.34,47.21,20.54,53.35,48.58,5.65,25.83-.3,49.37-22.14,66.34-24.65,19.15-51.48,18.01-78.05,4.82-25.33-12.58-39.7-34.66-48.18-60.96-1.05-3.27-1.86-6.62-2.86-9.91-.12-.41-.7-.67-1.82-1.69ZM184.9,111.29c-12.11,1.89-24.39,3.12-36.21,6.11-3.22.82-7.7,7.39-7.16,10.59,3.78,22.79,16.14,40.13,37.78,48.89,13.62,5.51,28.19,6.02,40.42-4.45,10.82-9.26,12.76-21.76,9.94-35.02-3.61-16.99-19.39-25.71-44.76-26.13Z"/>
  <path class="cls-1" d="M225.42,296.68c-.11,10.84-8.06,18.68-18.8,17.9-10.84-.79-16.99-7.11-17.77-17.83-.71-9.77,8.55-19.05,18.32-19.17,9.79-.12,18.36,8.85,18.26,19.1Z"/>
</svg>