<?xml version="1.0" encoding="UTF-8"?>
<svg id="Capa_1" data-name="Capa 1" xmlns="http://www.w3.org/2000/svg" viewBox="0 0 453.72 292.7">
  <defs>
    <style>
      .cls-1 {
        fill: #fff;
      }
    </style>
  </defs>
  <path class="cls-1" d="M70.2,178.47c3.28-12.37,4.95-21.58,8.22-30.17,3.3-8.67,7.16-17.48,12.58-24.92,15.03-20.6,39.87-26.86,58.56-15.82,18.69,11.04,25.22,37.74,14.66,60.51-8.79,18.95-23.62,31.87-43.08,38.18-13.17,4.27-11.96,9.81-5.78,19.08,21.75,32.69,62.17,46.03,98.97,28.95,17.4-8.07,32.21-22.01,47.53-34.13,8.67-6.85,9.25-13.54-.28-22.71-26.78-25.77-42.31-57.58-38.24-95.41,1.5-13.93,7.45-28.95,15.79-40.19,11.35-15.3,28.81-22.21,48.76-16.97,20.24,5.32,33.42,18.29,39.5,38.25,10.59,34.73,4.91,68.55-7.58,101.37-4.32,11.35-2.5,17.34,8.89,18.91,22.31,3.07,44.78,7.24,67.14,7,17.67-.19,14.05,11.68,16.01,20.41,2.57,11.44-6.5,11.09-13.95,11.6-30.46,2.1-60.29-.86-88.46-13.19-9.23-4.04-14.08-1.62-19.84,5.7-23,29.22-51.85,49.53-89.28,56.12-50.68,8.93-100.96-19.29-120.87-67.12-2.45-5.88-8.28-12.72-13.98-14.51C-1.96,188.31-14.21,107.38,14.6,60.33,32.7,30.78,59.12,12.14,91.68,1.45c7.62-2.5,13.79-2.75,15.09,7.37,1.06,8.32,9.47,18-5.89,22.68-24.87,7.58-45.19,21.67-58.95,44.29-16.67,27.39-13.73,66.06,7.55,87.98,5.37,5.53,12.73,9.13,20.73,14.69ZM288.69,177.31c11.98-27.4,17.37-55.54,8.42-84.24-2.32-7.44-13.25-16.98-20.12-16.9-7.07.08-17.23,9.4-20.4,17.02-9.21,22.08,2.78,66.83,32.1,84.12ZM107.53,177.3c19.08-6.2,29.83-17.87,29.94-31.54.09-10.85-5.67-14.55-14.87-9.55-11.42,6.2-19.09,26.48-15.07,41.09Z"/>
  <path class="cls-1" d="M453.71,221.22c-.14,10.37-8.96,19.01-19.23,18.25-11.24-.83-17.04-7.8-17.1-18.51-.06-10.92,6.44-17.48,17.28-18.42,9.72-.84,19.17,8.94,19.05,18.68Z"/>
</svg>