<?xml version="1.0" encoding="UTF-8"?>
<svg id="Capa_1" data-name="Capa 1" xmlns="http://www.w3.org/2000/svg" viewBox="0 0 599.14 565.37">
  <defs>
    <style>
      .cls-1 {
        fill: #fff;
      }
    </style>
  </defs>
  <path class="cls-1" d="M599.14,531.94c-.14,10.37-8.96,19.01-19.23,18.25-11.24-.83-17.04-7.8-17.1-18.51-.06-10.92,6.44-17.48,17.28-18.42,9.72-.84,19.17,8.94,19.05,18.68Z"/>
  <path class="cls-1" d="M28.37,290.68c46.23,8.68,92.42,17.65,138.66,26.29,4.97.93,10.25.12,16.4.12-10.38-37.83-21.05-73.16-29.64-108.99-9.28-38.71-14.4-77.96-8.04-117.98C155.08,31.37,204.2-8.85,257.4,1.67c43.98,8.7,67.97,41.21,82.96,80.22,8.33,21.67,12.15,45.07,18.58,69.95,5.47-5.96,10.63-11.68,15.89-17.3,24.88-26.54,52.19-49.74,88.27-59.36,31.95-8.51,62.68-6.54,85.82,20.2,23.79,27.49,24.85,59.88,12.26,92.34-20.33,52.41-59.23,88.55-107.01,115.84-56.38,32.2-117.91,47.87-181.96,54.96-7.38.82-14.74,1.9-22.18,2.87,9.07,44,72.45,101.52,118.63,98.49.74-12.59.35-25.4,2.46-37.79,5.08-29.85,26.86-50.83,54.19-53.81,36.8-4.02,62.72,28.41,54.17,68.4-4.34,20.3-16.14,35.93-33,47.83-4.29,3.03-8.62,6-13.96,9.71,24.46,27.5,54.9,33.96,88.18,30.33,19.71-2.15,27.31-2.7,31.84,6.78,6.37,13.31-1.75,30.4-16.43,31.91-32.99,3.39-61.7,4.51-90.96-10.29-19-9.6-34.16-26.74-51.19-40.31-4.31-3.43-9-8.61-13.76-8.9-81.83-5.02-134.24-51.15-168.31-121.35-7.43-15.32-15.32-20.88-32.11-20.94-51.85-.17-102.26-10.6-151.78-25.51-.6-.18-1.21-.36-1.81-.53-13.18-3.73-23.46-14.44-25.78-27.93-1.96-11.39,2.45-21.59,27.96-16.8ZM312.15,178.64c0-8.58.79-17.24-.14-25.72-3.59-32.88-10.62-64.74-33.57-90.37-27.71-30.95-69.2-24.88-83.26,14.31-6.98,19.47-8.41,42.11-7.34,63.05,2.98,58.41,23,113.17,41.19,168.1,1.35,4.08,9.59,8.68,14.32,8.36,20.81-1.4,41.69-3.5,62.21-7.2,59.27-10.68,115.48-29.41,162.7-68.53,25.99-21.52,47.47-46.8,55.21-80.87,7-30.81-13.43-51.99-43.78-43.74-15.1,4.1-31.31,10.82-42.52,21.21-25.04,23.21-47.78,49.02-70.47,74.63-18.25,20.6-17.41,20.7-42.32,10.01-9.27-3.98-13.57-8.86-12.45-19.13.87-7.95.17-16.06.22-24.1ZM413.28,455.72c15.35-5.6,24.41-15.49,26.21-30.31.62-5.11-.81-14.11-6.29-16.32-5.62-2.26-13.12,3.39-16.24,7.61-8.34,11.27-9.41,24.34-3.68,39.01Z"/>
</svg>