<?xml version="1.0" encoding="UTF-8"?>
<svg id="Layer_1" xmlns="http://www.w3.org/2000/svg" version="1.1" viewBox="0 0 48 46">
  <!-- Generator: Adobe Illustrator 30.3.0, SVG Export Plug-In . SVG Version: 2.1.3 Build 182)  -->
  <defs>
    <style>
      .st0 {
        fill: #ce8fff;
      }

      .st1 {
        fill: #20334f;
      }
    </style>
  </defs>
  <path class="st0" d="M45.3,20.3c-1.1-.1-2-.3-2.9-.4-.5,0-.5-.4-.5-.9,0-2,0-4-.2-5.9-.3-1.6-.9-3.1-1.7-4.5-2.2-3.8-6.5-4.6-10.1-1.9-2.2,1.6-3.6,3.8-4.8,6.1-.2.4,0,.6.3.9,1.9,1.6,4,3.1,5.7,5,4.3,4.7.8,10-3.1,11.2-3.7,1.2-7.7-1.2-8.4-5.3-.5-2.9,0-5.7.6-8.4.3-1.2.3-1.3-.8-1.6-1.6-.5-3.2-1.1-4.8-1.1-4.7-.1-8.1,3.4-8.1,8.2,0,3.2,1.4,5.8,3.4,8.2,1.4,1.7,1.4,1.7-.2,3.2-.9.9-.9.9-1.7,0-1.9-2.4-3.7-4.8-4.6-7.8-1.7-5.9.9-13.2,8.2-15.3,2.8-.8,5.6-.3,8.2.8.7.3,1.3.6,2,.8.8-1.4,1.5-2.7,2.4-4,1.6-2.4,3.7-4.3,6.3-5.4,4.5-1.9,9.8,0,12.5,4.2,1.9,3,2.5,6.4,2.5,9.9,0,1.3-.1,2.6-.2,4ZM23.4,16.7c-.5,2.1-1,3.9-.8,5.8,0,1,.4,2,.8,2.8.8,1.5,2.6,1.9,4.1,1,1.6-.9,2.3-2.7,1.5-4.2-1.3-2.3-3.5-3.7-5.6-5.4Z"/>
  <path class="st1" d="M17.5,38.5c.3-.3.6-.3,1,0s0,0,0,0c3.9,2.4,8.1,3.6,12.7,2.2,5.7-1.7,9-5.9,10.6-11.6s.2-1.1.3-1.7.3-.7.8-.6c2.7.1,2.8.3,2.2,2.8-1.9,7.7-6.6,12.8-14.4,14.7-4.4,1.1-8.5,0-12.4-2.2-.7-.4-1.3-.8-2.1-1.2s-.4-.7-.1-1l1.4-1.4Z"/>
  <path class="st1" d="M9.9,36.4c1.6-.6,2.6-2,2.6-3.6s.1,0,.1,0c.5,1.5,1.9,2.6,3.6,2.6s0,.1,0,.1c-.4.1-.8.4-1.2.7-.5.4-.9,1-1.2,1.6-.2.4-.3.9-.3,1.3s-.1,0-.1,0c-.6-1.6-2-2.6-3.6-2.6s0-.1,0-.1Z"/>
</svg>